<?xml version="1.0" standalone="no"?>
<!DOCTYPE svg PUBLIC "-//W3C//DTD SVG 20010904//EN"
 "http://www.w3.org/TR/2001/REC-SVG-20010904/DTD/svg10.dtd">
<svg version="1.0" xmlns="http://www.w3.org/2000/svg"
 width="300.000000pt" height="300.000000pt" viewBox="0 0 300.000000 300.000000"
 preserveAspectRatio="xMidYMid meet">

<g transform="translate(0.000000,300.000000) scale(0.100000,-0.100000)"
fill="#000000" stroke="none">
<path d="M1760 2610 l0 -60 33 0 c17 0 63 -7 100 -15 218 -46 385 -220 419
-438 l13 -77 62 0 63 0 -6 48 c-21 181 -88 319 -210 431 -112 102 -277 171
-411 171 l-63 0 0 -60z"/>
<path d="M1262 2443 c-25 -5 -47 -34 -57 -74 -6 -24 -2 -28 34 -43 23 -9 57
-16 77 -16 l35 0 -3 68 c-3 67 -3 67 -33 68 -16 1 -40 0 -53 -3z"/>
<path d="M1430 2383 l0 -70 77 -6 c43 -3 79 -4 82 -2 5 5 -39 124 -48 130 -4
2 -31 7 -59 11 l-52 7 0 -70z"/>
<path d="M1764 2417 c-2 -7 -3 -35 -1 -62 l3 -50 49 -6 c79 -10 131 -37 183
-94 47 -51 72 -106 72 -159 0 -25 1 -26 65 -26 73 0 72 -2 54 82 -33 159 -166
287 -329 318 -70 13 -90 13 -96 -3z"/>
<path d="M1073 2397 c-49 -18 -50 -27 -5 -27 23 0 42 2 42 4 0 2 3 11 6 20 7
18 1 19 -43 3z"/>
<path d="M943 2269 c-47 -14 -95 -69 -142 -162 -103 -205 -109 -453 -16 -670
52 -122 93 -184 185 -277 177 -180 366 -260 612 -260 57 0 135 7 173 15 137
29 314 135 349 209 30 63 16 164 -38 282 -39 85 -144 239 -215 314 l-61 65
-30 -35 c-16 -19 -30 -39 -30 -44 0 -4 29 -43 65 -86 162 -194 257 -413 200
-460 -62 -51 -338 91 -570 293 l-39 34 134 148 c74 81 163 179 198 218 46 53
68 71 84 69 35 -4 86 17 108 45 27 35 27 111 0 146 -69 88 -221 22 -206 -88 5
-40 5 -40 -127 -175 -73 -74 -164 -169 -201 -209 l-69 -75 -65 69 c-149 161
-280 366 -297 467 -6 32 -4 38 20 54 24 16 34 16 88 5 84 -16 242 -95 356
-176 l94 -66 33 32 c19 18 34 38 34 43 0 19 -182 140 -297 198 -105 52 -221
89 -275 87 -13 0 -38 -5 -55 -10z"/>
<path d="M1485 2189 c28 -17 67 -45 87 -61 44 -34 51 -27 46 43 l-3 44 -90 3
-90 3 50 -32z"/>
<path d="M655 2093 c-35 -46 -97 -165 -110 -212 -7 -22 -5 -23 27 -16 44 10
58 22 58 54 0 14 15 70 33 124 18 53 32 97 30 97 -1 0 -18 -21 -38 -47z"/>
<path d="M2260 1224 c0 -541 -2 -615 -15 -604 -8 6 -63 72 -122 146 -72 90
-113 133 -123 130 -8 -2 -48 -18 -88 -35 -39 -17 -106 -38 -147 -48 l-75 -17
0 -233 0 -234 83 3 82 3 5 243 5 242 200 -240 c111 -134 209 -243 220 -245 11
-2 47 -3 80 -2 l60 2 0 750 0 750 -82 3 -83 3 0 -617z"/>
<path d="M568 1776 c-20 -6 -42 -16 -48 -22 -14 -14 -18 -169 -7 -237 9 -54
25 -67 106 -91 l53 -16 -7 28 c-25 96 -45 217 -45 274 0 37 -3 69 -7 71 -5 2
-25 -1 -45 -7z"/>
<path d="M560 1340 c0 -36 121 -231 170 -275 26 -23 27 -29 -17 110 -18 55
-34 111 -37 125 -4 20 -15 28 -51 38 -55 15 -65 15 -65 2z"/>
<path d="M800 1184 c0 -21 22 -74 31 -74 16 0 9 34 -11 60 -11 14 -20 20 -20
14z"/>
<path d="M869 974 c-86 -187 -279 -625 -279 -634 0 -6 170 -10 475 -10 261 0
475 2 475 5 0 2 -47 113 -104 247 l-104 243 -74 26 c-98 34 -180 79 -252 137
-105 85 -90 86 -137 -14z"/>
</g>
</svg>
